# xmcd
#
# Track frame offsets: 
#        150
#        12775
#        21945
#        38025
#        47695
#        86132
#        93195
#        115590
#        132060
#        144875
#        176850
#        192255
#        208830
#
# Disc length: 3068 seconds
#
# Revision: 17
# Processed by: cddbd v1.5.2PL0 Copyright (c) Steve Scherf et al.
# Submitted via: ExactAudioCopyFreeDBPlugin 1.0
#
DISCID=a60bfa0d
DTITLE=Mike Oldfield - Music Wonderland
DYEAR=1981
DGENRE=Instrumental
TTITLE0=Arrival
TTITLE1=Portsmouth
TTITLE2=Sheba
TTITLE3=Blue Peter
TTITLE4=Extract From Tubular Bells
TTITLE5=Sailor's Hornpipe
TTITLE6=Punkadiddle
TTITLE7=Wonderful Land
TTITLE8=In Dulci Jubilo
TTITLE9=Extract From Ommadawn
TTITLE10=On Horseback
TTITLE11=Guilty (Live)
TTITLE12=North Star - Platinum Finale
EXTD=YEAR: 1980
EXTT0=
EXTT1=
EXTT2=
EXTT3=
EXTT4=
EXTT5=
EXTT6=
EXTT7=
EXTT8=
EXTT9=
EXTT10=
EXTT11=
EXTT12=
PLAYORDER=
